# Blender 4.5.4 LTS
# www.blender.org
mtllib border-cube.mtl
o Cube
v 0.333333 -1.000000 -1.000000
v -0.333333 -1.000000 -1.000000
v -0.333333 -1.000000 -0.333333
v 0.333333 -1.000000 -0.333333
v 0.000000 0.000000 0.000000
vn -0.0000 1.0000 -0.0000
vn -0.9487 -0.3162 -0.0000
vn -0.0000 -0.7071 0.7071
vn -0.0000 0.3162 -0.9487
vn 0.9487 -0.3162 -0.0000
vt 0.014144 0.963244
vt 0.016056 0.005737
vt 0.973562 0.007650
vt 0.971650 0.965156
vt -0.459674 -1.509169
vt 3.003784 0.490460
vt -1.498851 0.481467
vt -0.467633 2.476238
s 0
usemtl Material.003
f 3/1/1 4/2/1 1/3/1 2/4/1
f 5/5/2 1/3/2 4/2/2
f 1/3/3 5/6/3 2/4/3
f 3/1/4 5/7/4 4/2/4
f 2/4/5 5/8/5 3/1/5
