# Blender 4.5.4 LTS
# www.blender.org
mtllib cube-border.mtl
o Cube
v 0.000000 0.500000 0.000000
v -0.333333 -0.500000 0.333333
v 0.333333 -0.500000 0.333333
v -0.333333 -0.500000 1.000000
v 0.333333 -0.500000 1.000000
vn -0.0000 1.0000 -0.0000
vn 0.9487 -0.3162 -0.0000
vn -0.0000 0.3162 0.9487
vn -0.9487 -0.3162 -0.0000
vn -0.0000 -0.7071 -0.7071
vt 0.000000 0.000000
s 0
usemtl Material.002
f 4/1/1 5/1/1 3/1/1 2/1/1
f 1/1/2 4/1/2 2/1/2
f 2/1/3 3/1/3 1/1/3
f 5/1/4 1/1/4 3/1/4
f 5/1/5 4/1/5 1/1/5
o Cube.001
v 0.000000 0.500000 0.000000
v -0.333333 -0.500000 0.333333
v 0.333333 -0.500000 0.333333
v -0.333333 -0.500000 1.000000
v 0.333333 -0.500000 1.000000
vn -0.0000 1.0000 -0.0000
vn 0.9487 -0.3162 -0.0000
vn -0.0000 0.3162 0.9487
vn -0.9487 -0.3162 -0.0000
vn -0.0000 -0.7071 -0.7071
vt 0.000000 0.000000
s 0
f 9/2/6 10/2/6 8/2/6 7/2/6
f 6/2/7 9/2/7 7/2/7
f 7/2/8 8/2/8 6/2/8
f 10/2/9 6/2/9 8/2/9
f 10/2/10 9/2/10 6/2/10
