# Blender 5.1.2
# www.blender.org
mtllib Szachownica_base_color.mtl
o Cube.001
v -4.000000 -0.500000 4.000000
v -4.000000 0.500000 4.000000
v -4.000000 -0.500000 3.000000
v -4.000000 0.500000 3.000000
v -3.000000 -0.500000 4.000000
v -3.000000 0.500000 4.000000
v -3.000000 -0.500000 3.000000
v -3.000000 0.500000 3.000000
v -2.000000 -0.500000 4.000000
v -2.000000 0.500000 4.000000
v -2.000000 -0.500000 3.000000
v -2.000000 0.500000 3.000000
v -1.000000 -0.500000 4.000000
v -1.000000 0.500000 4.000000
v -1.000000 -0.500000 3.000000
v -1.000000 0.500000 3.000000
v 0.000000 -0.500000 4.000000
v 0.000000 0.500000 4.000000
v 0.000000 -0.500000 3.000000
v 0.000000 0.500000 3.000000
v 1.000000 -0.500000 4.000000
v 1.000000 0.500000 4.000000
v 1.000000 -0.500000 3.000000
v 1.000000 0.500000 3.000000
v 2.000000 -0.500000 4.000000
v 2.000000 0.500000 4.000000
v 2.000000 -0.500000 3.000000
v 2.000000 0.500000 3.000000
v 3.000000 -0.500000 4.000000
v 3.000000 0.500000 4.000000
v 3.000000 -0.500000 3.000000
v 3.000000 0.500000 3.000000
v -3.000000 -0.500000 3.000000
v -3.000000 0.500000 3.000000
v -3.000000 -0.500000 2.000000
v -3.000000 0.500000 2.000000
v -2.000000 -0.500000 3.000000
v -2.000000 0.500000 3.000000
v -2.000000 -0.500000 2.000000
v -2.000000 0.500000 2.000000
v -1.000000 -0.500000 3.000000
v -1.000000 0.500000 3.000000
v -1.000000 -0.500000 2.000000
v -1.000000 0.500000 2.000000
v 0.000000 -0.500000 3.000000
v 0.000000 0.500000 3.000000
v 0.000000 -0.500000 2.000000
v 0.000000 0.500000 2.000000
v 1.000000 -0.500000 3.000000
v 1.000000 0.500000 3.000000
v 1.000000 -0.500000 2.000000
v 1.000000 0.500000 2.000000
v 2.000000 -0.500000 3.000000
v 2.000000 0.500000 3.000000
v 2.000000 -0.500000 2.000000
v 2.000000 0.500000 2.000000
v 3.000000 -0.500000 3.000000
v 3.000000 0.500000 3.000000
v 3.000000 -0.500000 2.000000
v 3.000000 0.500000 2.000000
v 4.000000 -0.500000 3.000000
v 4.000000 0.500000 3.000000
v 4.000000 -0.500000 2.000000
v 4.000000 0.500000 2.000000
v -4.000000 -0.500000 2.000000
v -4.000000 0.500000 2.000000
v -4.000000 -0.500000 1.000000
v -4.000000 0.500000 1.000000
v -3.000000 -0.500000 2.000000
v -3.000000 0.500000 2.000000
v -3.000000 -0.500000 1.000000
v -3.000000 0.500000 1.000000
v -2.000000 -0.500000 2.000000
v -2.000000 0.500000 2.000000
v -2.000000 -0.500000 1.000000
v -2.000000 0.500000 1.000000
v -1.000000 -0.500000 2.000000
v -1.000000 0.500000 2.000000
v -1.000000 -0.500000 1.000000
v -1.000000 0.500000 1.000000
v 0.000000 -0.500000 2.000000
v 0.000000 0.500000 2.000000
v 0.000000 -0.500000 1.000000
v 0.000000 0.500000 1.000000
v 1.000000 -0.500000 2.000000
v 1.000000 0.500000 2.000000
v 1.000000 -0.500000 1.000000
v 1.000000 0.500000 1.000000
v 2.000000 -0.500000 2.000000
v 2.000000 0.500000 2.000000
v 2.000000 -0.500000 1.000000
v 2.000000 0.500000 1.000000
v 3.000000 -0.500000 2.000000
v 3.000000 0.500000 2.000000
v 3.000000 -0.500000 1.000000
v 3.000000 0.500000 1.000000
v -3.000000 -0.500000 1.000000
v -3.000000 0.500000 1.000000
v -3.000000 -0.500000 0.000000
v -3.000000 0.500000 -0.000000
v -2.000000 -0.500000 1.000000
v -2.000000 0.500000 1.000000
v -2.000000 -0.500000 0.000000
v -2.000000 0.500000 -0.000000
v -1.000000 -0.500000 1.000000
v -1.000000 0.500000 1.000000
v -1.000000 -0.500000 0.000000
v -1.000000 0.500000 -0.000000
v 0.000000 -0.500000 1.000000
v 0.000000 0.500000 1.000000
v 0.000000 -0.500000 0.000000
v 0.000000 0.500000 -0.000000
v 1.000000 -0.500000 1.000000
v 1.000000 0.500000 1.000000
v 1.000000 -0.500000 0.000000
v 1.000000 0.500000 -0.000000
v 2.000000 -0.500000 1.000000
v 2.000000 0.500000 1.000000
v 2.000000 -0.500000 0.000000
v 2.000000 0.500000 -0.000000
v 3.000000 -0.500000 1.000000
v 3.000000 0.500000 1.000000
v 3.000000 -0.500000 0.000000
v 3.000000 0.500000 -0.000000
v 4.000000 -0.500000 1.000000
v 4.000000 0.500000 1.000000
v 4.000000 -0.500000 0.000000
v 4.000000 0.500000 -0.000000
v -4.000000 -0.500000 0.000000
v -4.000000 0.500000 -0.000000
v -4.000000 -0.500000 -1.000000
v -4.000000 0.500000 -1.000000
v -3.000000 -0.500000 0.000000
v -3.000000 0.500000 -0.000000
v -3.000000 -0.500000 -1.000000
v -3.000000 0.500000 -1.000000
v -2.000000 -0.500000 0.000000
v -2.000000 0.500000 -0.000000
v -2.000000 -0.500000 -1.000000
v -2.000000 0.500000 -1.000000
v -1.000000 -0.500000 0.000000
v -1.000000 0.500000 -0.000000
v -1.000000 -0.500000 -1.000000
v -1.000000 0.500000 -1.000000
v 0.000000 -0.500000 0.000000
v 0.000000 0.500000 -0.000000
v 0.000000 -0.500000 -1.000000
v 0.000000 0.500000 -1.000000
v 1.000000 -0.500000 0.000000
v 1.000000 0.500000 -0.000000
v 1.000000 -0.500000 -1.000000
v 1.000000 0.500000 -1.000000
v 2.000000 -0.500000 0.000000
v 2.000000 0.500000 -0.000000
v 2.000000 -0.500000 -1.000000
v 2.000000 0.500000 -1.000000
v 3.000000 -0.500000 0.000000
v 3.000000 0.500000 -0.000000
v 3.000000 -0.500000 -1.000000
v 3.000000 0.500000 -1.000000
v -3.000000 -0.500000 -1.000000
v -3.000000 0.500000 -1.000000
v -3.000000 -0.500000 -2.000000
v -3.000000 0.500000 -2.000000
v -2.000000 -0.500000 -1.000000
v -2.000000 0.500000 -1.000000
v -2.000000 -0.500000 -2.000000
v -2.000000 0.500000 -2.000000
v -1.000000 -0.500000 -1.000000
v -1.000000 0.500000 -1.000000
v -1.000000 -0.500000 -2.000000
v -1.000000 0.500000 -2.000000
v 0.000000 -0.500000 -1.000000
v 0.000000 0.500000 -1.000000
v 0.000000 -0.500000 -2.000000
v 0.000000 0.500000 -2.000000
v 1.000000 -0.500000 -1.000000
v 1.000000 0.500000 -1.000000
v 1.000000 -0.500000 -2.000000
v 1.000000 0.500000 -2.000000
v 2.000000 -0.500000 -1.000000
v 2.000000 0.500000 -1.000000
v 2.000000 -0.500000 -2.000000
v 2.000000 0.500000 -2.000000
v 3.000000 -0.500000 -1.000000
v 3.000000 0.500000 -1.000000
v 3.000000 -0.500000 -2.000000
v 3.000000 0.500000 -2.000000
v 4.000000 -0.500000 -1.000000
v 4.000000 0.500000 -1.000000
v 4.000000 -0.500000 -2.000000
v 4.000000 0.500000 -2.000000
v -4.000000 -0.500000 -2.000000
v -4.000000 0.500000 -2.000000
v -4.000000 -0.500000 -3.000000
v -4.000000 0.500000 -3.000000
v -3.000000 -0.500000 -2.000000
v -3.000000 0.500000 -2.000000
v -3.000000 -0.500000 -3.000000
v -3.000000 0.500000 -3.000000
v -2.000000 -0.500000 -2.000000
v -2.000000 0.500000 -2.000000
v -2.000000 -0.500000 -3.000000
v -2.000000 0.500000 -3.000000
v -1.000000 -0.500000 -2.000000
v -1.000000 0.500000 -2.000000
v -1.000000 -0.500000 -3.000000
v -1.000000 0.500000 -3.000000
v 0.000000 -0.500000 -2.000000
v 0.000000 0.500000 -2.000000
v 0.000000 -0.500000 -3.000000
v 0.000000 0.500000 -3.000000
v 1.000000 -0.500000 -2.000000
v 1.000000 0.500000 -2.000000
v 1.000000 -0.500000 -3.000000
v 1.000000 0.500000 -3.000000
v 2.000000 -0.500000 -2.000000
v 2.000000 0.500000 -2.000000
v 2.000000 -0.500000 -3.000000
v 2.000000 0.500000 -3.000000
v 3.000000 -0.500000 -2.000000
v 3.000000 0.500000 -2.000000
v 3.000000 -0.500000 -3.000000
v 3.000000 0.500000 -3.000000
v -3.000000 -0.500000 -3.000000
v -3.000000 0.500000 -3.000000
v -3.000000 -0.500000 -4.000000
v -3.000000 0.500000 -4.000000
v -2.000000 -0.500000 -3.000000
v -2.000000 0.500000 -3.000000
v -2.000000 -0.500000 -4.000000
v -2.000000 0.500000 -4.000000
v -1.000000 -0.500000 -3.000000
v -1.000000 0.500000 -3.000000
v -1.000000 -0.500000 -4.000000
v -1.000000 0.500000 -4.000000
v 0.000000 -0.500000 -3.000000
v 0.000000 0.500000 -3.000000
v 0.000000 -0.500000 -4.000000
v 0.000000 0.500000 -4.000000
v 1.000000 -0.500000 -3.000000
v 1.000000 0.500000 -3.000000
v 1.000000 -0.500000 -4.000000
v 1.000000 0.500000 -4.000000
v 2.000000 -0.500000 -3.000000
v 2.000000 0.500000 -3.000000
v 2.000000 -0.500000 -4.000000
v 2.000000 0.500000 -4.000000
v 3.000000 -0.500000 -3.000000
v 3.000000 0.500000 -3.000000
v 3.000000 -0.500000 -4.000000
v 3.000000 0.500000 -4.000000
v 4.000000 -0.500000 -3.000000
v 4.000000 0.500000 -3.000000
v 4.000000 -0.500000 -4.000000
v 4.000000 0.500000 -4.000000
vn -1.0000 -0.0000 -0.0000
vn -0.0000 -0.0000 -1.0000
vn 1.0000 -0.0000 -0.0000
vn -0.0000 -0.0000 1.0000
vn -0.0000 -1.0000 -0.0000
vn -0.0000 1.0000 -0.0000
vt -1.250059 1.546880
vt -1.250059 1.128129
vt -0.831302 1.128129
vt -0.831302 1.546880
vt -1.250059 -0.155370
vt -0.831302 -0.155370
vt -0.831302 0.263381
vt -1.250059 0.263381
vt -0.831302 0.682138
vt -1.250059 0.682138
vt -0.817685 1.128129
vt -0.398934 1.128129
vt -0.398934 1.546880
vt -0.817685 1.546880
vt -0.385311 1.546880
vt -0.385311 1.128129
vt 0.033440 1.128129
vt 0.033440 1.546880
vt 0.047063 1.128129
vt 0.465814 1.128129
vt 0.465814 1.546880
vt 0.047063 1.546880
vt -2.128424 -1.438862
vt -2.547175 -1.438862
vt -2.547175 -1.857613
vt -2.128424 -1.857613
vt -2.547175 -2.276370
vt -2.128424 -2.276370
vt -2.547175 -2.695120
vt -2.128424 -2.695120
vt 0.479431 1.128129
vt 0.898188 1.128129
vt 0.898188 1.546880
vt 0.479431 1.546880
vt 0.911805 1.560503
vt 0.911805 1.141747
vt 1.330556 1.141747
vt 1.330556 1.560503
vt 1.344179 -2.695120
vt 1.762930 -2.695120
vt 1.762930 -2.276370
vt 1.344179 -2.276370
vt -0.831302 -1.438862
vt -1.250059 -1.438862
vt -1.250059 -1.857613
vt -0.831302 -1.857613
vt -1.250059 -2.276370
vt -0.831302 -2.276370
vt -1.250053 -2.695120
vt -0.831302 -2.695120
vt 1.330556 2.006494
vt 1.330556 2.425245
vt 0.911805 2.425245
vt 0.911805 2.006494
vt -1.682427 2.411628
vt -1.263676 2.411628
vt -1.263676 2.830378
vt -1.682427 2.830378
vt 1.762930 -2.262747
vt 1.762930 -1.843996
vt 1.344179 -1.843996
vt 1.344179 -2.262747
vt -1.263676 -1.438862
vt -1.682427 -1.438862
vt -1.682427 -1.857613
vt -1.263676 -1.857613
vt -1.682427 -2.276370
vt -1.263676 -2.276370
vt -1.682427 -2.695120
vt -1.263676 -2.695120
vt 3.060046 2.438868
vt 3.060046 2.857619
vt 2.641295 2.857619
vt 2.641295 2.438868
vt -2.547175 2.843996
vt -2.128424 2.843996
vt -2.128424 3.262752
vt -2.547175 3.262752
vt -1.696050 2.843996
vt -1.696050 3.262752
vt -2.114801 3.262752
vt -2.114801 2.843996
vt -1.696050 -1.438862
vt -2.114801 -1.438862
vt -2.114801 -1.857613
vt -1.696050 -1.857613
vt -2.114801 -2.276370
vt -1.696050 -2.276370
vt -2.114801 -2.695120
vt -1.696050 -2.695120
vt 1.344179 -1.830373
vt 1.762930 -1.830373
vt 1.762930 -1.411622
vt 1.344179 -1.411622
vt 1.344179 -0.979248
vt 1.344179 -1.398004
vt 1.762930 -1.398004
vt 1.762930 -0.979248
vt 1.344179 -0.965630
vt 1.762930 -0.965630
vt 1.762930 -0.546880
vt 1.344179 -0.546880
vt -0.398934 -1.438862
vt -0.817685 -1.438862
vt -0.817685 -1.857613
vt -0.398934 -1.857613
vt -0.817685 -2.276370
vt -0.398934 -2.276370
vt -0.817685 -2.695120
vt -0.398934 -2.695120
vt -0.831302 2.425245
vt -0.831302 2.843996
vt -1.250059 2.843996
vt -1.250059 2.425245
vt 3.073669 0.750242
vt 3.073669 0.331486
vt 3.492419 0.331486
vt 3.492419 0.750242
vt 3.073669 -0.965630
vt 3.492419 -0.965630
vt 3.492419 -0.546880
vt 3.073669 -0.546880
vt -2.547175 -1.425245
vt -2.128424 -1.425245
vt -2.128424 -1.006494
vt -2.547175 -1.006494
vt -2.128424 -0.587738
vt -2.547175 -0.587738
vt -2.128424 -0.168987
vt -2.547175 -0.168987
vt -0.398934 2.425245
vt -0.398934 2.843996
vt -0.817685 2.843996
vt -0.817685 2.425245
vt -1.682427 3.262746
vt -1.682427 2.843996
vt -1.263676 2.843996
vt -1.263676 3.262746
vt 1.762930 -0.114506
vt 1.344179 -0.114506
vt 1.344179 -0.533257
vt 1.762930 -0.533257
vt 1.330556 -1.006494
vt 0.911805 -1.006494
vt 0.911805 -1.425245
vt 1.330556 -1.425245
vt 0.911805 -1.843996
vt 1.330556 -1.843996
vt -0.385311 2.425245
vt 0.033440 2.425245
vt 0.033440 2.843996
vt -0.385311 2.843996
vt 1.344179 -0.100883
vt 1.762930 -0.100883
vt 1.762930 0.317868
vt 1.344179 0.317868
vt -0.817685 1.114506
vt -0.817685 0.695755
vt -0.398934 0.695755
vt -0.398934 1.114506
vt -0.385311 0.695755
vt 0.033440 0.695755
vt 0.033440 1.114506
vt -0.385311 1.114506
vt 1.344179 2.425245
vt 1.344179 2.006494
vt 1.762930 2.006494
vt 1.762930 2.425245
vt 0.898188 0.682138
vt 0.479431 0.682138
vt 0.479431 0.263381
vt 0.898188 0.263381
vt 0.479431 -0.155370
vt 0.898188 -0.155370
vt 0.047063 0.695755
vt 0.465814 0.695755
vt 0.465814 1.114506
vt 0.047063 1.114506
vt 1.344179 0.331486
vt 1.762930 0.331486
vt 1.762930 0.750242
vt 1.344179 0.750242
vt -2.128424 1.965630
vt -2.547175 1.965630
vt -2.547175 1.546880
vt -2.128424 1.546880
vt 1.776553 2.425245
vt 1.776553 2.006494
vt 2.195304 2.006494
vt 2.195304 2.425245
vt 0.911805 -0.992871
vt 1.330556 -0.992871
vt 1.330556 -0.574120
vt 0.911805 -0.574120
vt 1.330556 -0.155370
vt 0.911805 -0.155370
vt -1.696050 1.546880
vt -1.696050 1.965630
vt -2.114801 1.965630
vt -2.114801 1.546880
vt 0.047063 2.425245
vt 0.465814 2.425245
vt 0.465814 2.843996
vt 0.047063 2.843996
vt -1.696050 1.533262
vt -2.114801 1.533262
vt -2.114801 1.114506
vt -1.696050 1.114506
vt -1.682427 -0.155370
vt -1.263676 -0.155370
vt -1.263676 0.263381
vt -1.682427 0.263381
vt -1.263676 0.682138
vt -1.682427 0.682138
vt -1.263676 1.100888
vt -1.682427 1.100888
vt 3.073669 -1.830373
vt 3.492419 -1.830373
vt 3.492419 -1.411622
vt 3.073669 -1.411622
vt 0.479431 2.425245
vt 0.898188 2.425245
vt 0.898188 2.843996
vt 0.479431 2.843996
vt -1.263676 1.546880
vt -1.263676 1.965630
vt -1.682427 1.965630
vt -1.682427 1.546880
vt -1.250059 -1.425245
vt -0.831302 -1.425245
vt -0.831302 -1.006494
vt -1.250059 -1.006494
vt -0.831302 -0.587738
vt -1.250059 -0.587738
vt -0.831302 -0.168987
vt -1.250059 -0.168987
vt -1.250059 1.560503
vt -0.831302 1.560503
vt -0.831302 1.979254
vt -1.250059 1.979254
vt -1.250059 2.857619
vt -0.831302 2.857619
vt -0.831302 3.276370
vt -1.250059 3.276370
vt -0.398934 2.857619
vt -0.398934 3.276370
vt -0.817685 3.276370
vt -0.817685 2.857619
vt 0.033440 -0.168987
vt -0.385311 -0.168987
vt -0.385311 -0.587738
vt 0.033440 -0.587738
vt -0.385311 -1.006494
vt 0.033440 -1.006494
vt -0.385311 -1.425245
vt 0.033440 -1.425245
vt 0.911805 2.438868
vt 1.330556 2.438868
vt 1.330556 2.857619
vt 0.911805 2.857619
vt 3.073669 1.141747
vt 3.492419 1.141747
vt 3.492419 1.560503
vt 3.073669 1.560503
vt 3.492419 1.574120
vt 3.492419 1.992871
vt 3.073669 1.992871
vt 3.073669 1.574120
vt 2.208921 -2.695120
vt 2.627672 -2.695120
vt 2.627672 -2.276370
vt 2.208921 -2.276370
vt 0.033440 0.682138
vt -0.385311 0.682138
vt -0.385311 0.263381
vt 0.033440 0.263381
vt -0.385311 -0.155370
vt 0.033440 -0.155370
vt 1.344179 2.438868
vt 1.762930 2.438868
vt 1.762930 2.857619
vt 1.344179 2.857619
vt 3.073669 -0.100883
vt 3.492419 -0.100883
vt 3.492419 0.317868
vt 3.073669 0.317868
vt 3.492419 -1.843996
vt 3.073669 -1.843996
vt 3.073669 -2.262747
vt 3.492419 -2.262747
vt 0.047063 -1.425245
vt 0.465814 -1.425245
vt 0.465814 -1.006494
vt 0.047063 -1.006494
vt 0.465814 -0.587738
vt 0.047063 -0.587738
vt 0.465814 -0.168987
vt 0.047063 -0.168987
vt 2.195304 2.438868
vt 2.195304 2.857619
vt 1.776553 2.857619
vt 1.776553 2.438868
vt 2.627672 2.438868
vt 2.627672 2.857619
vt 2.208921 2.857619
vt 2.208921 2.438868
vt 2.627672 -1.843996
vt 2.208921 -1.843996
vt 2.208921 -2.262747
vt 2.627672 -2.262747
vt -0.817685 -0.155370
vt -0.398934 -0.155370
vt -0.398934 0.263381
vt -0.817685 0.263381
vt -0.398934 0.682138
vt -0.817685 0.682138
vt 2.641295 -2.695120
vt 3.060046 -2.695120
vt 3.060046 -2.276370
vt 2.641295 -2.276370
vt 2.641295 -2.262747
vt 3.060046 -2.262747
vt 3.060046 -1.843996
vt 2.641295 -1.843996
vt 2.627672 -1.830373
vt 2.627672 -1.411622
vt 2.208921 -1.411622
vt 2.208921 -1.830373
vt 2.627672 -0.979248
vt 2.208921 -0.979248
vt 2.208921 -1.398004
vt 2.627672 -1.398004
vt 3.060046 -1.411622
vt 2.641295 -1.411622
vt 2.641295 -1.830373
vt 3.060046 -1.830373
vt 1.330556 -1.857613
vt 0.911805 -1.857613
vt 0.911805 -2.276370
vt 1.330556 -2.276370
vt 0.911805 -2.695120
vt 1.330556 -2.695120
vt 2.208921 -0.965630
vt 2.627672 -0.965630
vt 2.627672 -0.546880
vt 2.208921 -0.546880
vt 2.208921 -0.114506
vt 2.208921 -0.533257
vt 2.627672 -0.533257
vt 2.627672 -0.114506
vt 2.627672 0.317868
vt 2.208921 0.317868
vt 2.208921 -0.100883
vt 2.627672 -0.100883
vt -2.128424 1.100888
vt -2.547175 1.100888
vt -2.547175 0.682138
vt -2.128424 0.682138
vt -2.547175 0.263387
vt -2.128424 0.263387
vt -2.547175 -0.155370
vt -2.128424 -0.155370
vt -0.817685 1.560503
vt -0.398934 1.560503
vt -0.398934 1.979254
vt -0.817685 1.979254
vt 2.208921 0.750242
vt 2.208921 0.331486
vt 2.627672 0.331486
vt 2.627672 0.750242
vt 2.208921 1.141752
vt 2.627677 1.141752
vt 2.627677 1.560503
vt 2.208927 1.560503
vt 0.047063 -2.695120
vt 0.465814 -2.695120
vt 0.465814 -2.276370
vt 0.047063 -2.276370
vt 0.465814 -1.857613
vt 0.047063 -1.857613
vt 0.465814 -1.438862
vt 0.047063 -1.438862
vt 3.492419 -1.398004
vt 3.492419 -0.979248
vt 3.073669 -0.979248
vt 3.073669 -1.398004
vt 2.208921 1.992871
vt 2.208921 1.574120
vt 2.627677 1.574120
vt 2.627677 1.992871
vt 0.033440 1.560503
vt 0.033440 1.979254
vt -0.385311 1.979254
vt -0.385311 1.560503
vt -1.696050 1.100888
vt -2.114801 1.100888
vt -2.114801 0.682138
vt -1.696050 0.682138
vt -2.114801 0.263381
vt -1.696050 0.263381
vt -2.114801 -0.155370
vt -1.696050 -0.155370
vt 0.033440 3.276370
vt -0.385311 3.276370
vt -0.385311 2.857619
vt 0.033440 2.857619
vt 3.073669 2.006494
vt 3.492419 2.006494
vt 3.492419 2.425245
vt 3.073669 2.425245
vt 2.627677 2.425245
vt 2.208921 2.425245
vt 2.208921 2.006494
vt 2.627677 2.006494
vt 0.898188 -0.168987
vt 0.479431 -0.168987
vt 0.479431 -0.587738
vt 0.898188 -0.587738
vt 0.479431 -1.006494
vt 0.898188 -1.006494
vt 0.479431 -1.425245
vt 0.898188 -1.425245
vt 3.492419 2.438868
vt 3.492419 2.857619
vt 3.073669 2.857619
vt 3.073669 2.438868
vt 0.047063 2.857619
vt 0.465814 2.857619
vt 0.465814 3.276370
vt 0.047063 3.276370
vt 0.465814 1.560503
vt 0.465814 1.979254
vt 0.047063 1.979254
vt 0.047063 1.560503
vt -1.696050 -0.168987
vt -2.114801 -0.168987
vt -2.114801 -0.587738
vt -1.696050 -0.587738
vt -2.114801 -1.006489
vt -1.696050 -1.006494
vt -2.114801 -1.425245
vt -1.696050 -1.425245
vt 2.641295 -1.398004
vt 3.060046 -1.398004
vt 3.060046 -0.979248
vt 2.641295 -0.979248
vt 2.641295 -0.965630
vt 3.060046 -0.965630
vt 3.060046 -0.546880
vt 2.641295 -0.546880
vt 3.060046 -0.533257
vt 3.060046 -0.114506
vt 2.641295 -0.114506
vt 2.641295 -0.533257
vt 0.898188 -1.438862
vt 0.479431 -1.438862
vt 0.479431 -1.857613
vt 0.898188 -1.857613
vt 0.479431 -2.276370
vt 0.898188 -2.276370
vt 0.479431 -2.695120
vt 0.898188 -2.695120
vt 0.898188 1.560503
vt 0.898188 1.979254
vt 0.479431 1.979254
vt 0.479431 1.560503
vt -1.682427 1.114506
vt -1.263676 1.114506
vt -1.263676 1.533257
vt -1.682427 1.533257
vt 1.330556 1.574120
vt 1.330556 1.992871
vt 0.911805 1.992871
vt 0.911805 1.574120
vt 0.911805 -0.141747
vt 1.330556 -0.141747
vt 1.330556 0.277004
vt 0.911805 0.277004
vt 1.330556 0.695755
vt 0.911805 0.695755
vt 1.344179 1.574120
vt 1.762930 1.574120
vt 1.762930 1.992871
vt 1.344179 1.992871
vt -2.128424 2.830378
vt -2.547175 2.830378
vt -2.547175 2.411628
vt -2.128424 2.411628
vt 1.344179 1.560503
vt 1.344179 1.141747
vt 1.762930 1.141747
vt 1.762930 1.560503
vt 1.776553 -2.695120
vt 2.195304 -2.695120
vt 2.195304 -2.276370
vt 1.776553 -2.276370
vt 0.479431 2.857619
vt 0.898188 2.857619
vt 0.898188 3.276370
vt 0.479431 3.276370
vt 0.465814 0.682138
vt 0.047063 0.682138
vt 0.047063 0.263381
vt 0.465814 0.263381
vt 0.047063 -0.155370
vt 0.465814 -0.155370
vt 2.641295 -0.100883
vt 3.060046 -0.100883
vt 3.060046 0.317868
vt 2.641295 0.317868
vt 0.479431 1.114506
vt 0.479431 0.695755
vt 0.898188 0.695755
vt 0.898188 1.114506
vt 0.911805 0.709378
vt 1.330556 0.709378
vt 1.330556 1.128129
vt 0.911805 1.128129
vt -1.263676 -0.168987
vt -1.682427 -0.168987
vt -1.682427 -0.587738
vt -1.263676 -0.587738
vt -1.682427 -1.006494
vt -1.263676 -1.006494
vt -1.682427 -1.425245
vt -1.263676 -1.425245
vt 3.060046 0.331486
vt 3.060046 0.750242
vt 2.641295 0.750242
vt 2.641295 0.331486
vt 0.911805 3.289993
vt 0.911805 2.871236
vt 1.330556 2.871236
vt 1.330556 3.289993
vt 1.344179 2.871242
vt 1.762930 2.871242
vt 1.762930 3.289993
vt 1.344179 3.289993
vt 0.033440 -1.438862
vt -0.385311 -1.438862
vt -0.385311 -1.857613
vt 0.033440 -1.857613
vt -0.385311 -2.276370
vt 0.033440 -2.276370
vt -0.385311 -2.695120
vt 0.033440 -2.695120
vt 2.641295 1.141752
vt 3.060046 1.141752
vt 3.060046 1.560503
vt 2.641295 1.560503
vt 3.073669 3.289993
vt 3.073669 2.871236
vt 3.492419 2.871236
vt 3.492419 3.289993
vt 2.195304 -2.262747
vt 2.195304 -1.843996
vt 1.776553 -1.843996
vt 1.776553 -2.262747
vt -0.817685 -1.425245
vt -0.398934 -1.425245
vt -0.398934 -1.006489
vt -0.817685 -1.006494
vt -0.398934 -0.587738
vt -0.817685 -0.587738
vt -0.398934 -0.168987
vt -0.817685 -0.168987
vt -2.128424 3.276370
vt -2.128424 3.695120
vt -2.547175 3.695120
vt -2.547175 3.276370
vt 1.776553 -1.411622
vt 1.776553 -1.830373
vt 2.195304 -1.830373
vt 2.195304 -1.411622
vt 1.776553 -1.397999
vt 2.195304 -1.397999
vt 2.195304 -0.979248
vt 1.776553 -0.979248
vt 1.776553 -0.546880
vt 1.776553 -0.965630
vt 2.195304 -0.965630
vt 2.195304 -0.546880
vt 1.776553 3.289993
vt 1.776553 2.871236
vt 2.195304 2.871236
vt 2.195304 3.289993
vt 1.776553 -0.533257
vt 2.195304 -0.533257
vt 2.195304 -0.114506
vt 1.776553 -0.114506
vt -1.250059 0.695755
vt -0.831302 0.695755
vt -0.831302 1.114506
vt -1.250059 1.114506
vt 2.208921 2.871236
vt 2.627672 2.871236
vt 2.627672 3.289993
vt 2.208921 3.289993
vt 3.060046 2.871236
vt 3.060046 3.289993
vt 2.641295 3.289993
vt 2.641295 2.871236
vt 1.776553 0.317868
vt 1.776553 -0.100883
vt 2.195304 -0.100883
vt 2.195304 0.317868
vt -2.114801 2.830378
vt -2.114801 2.411628
vt -1.696050 2.411628
vt -1.696050 2.830378
vt 1.776553 0.331486
vt 2.195304 0.331486
vt 2.195304 0.750242
vt 1.776553 0.750242
vt 3.073669 -0.533257
vt 3.492419 -0.533257
vt 3.492419 -0.114506
vt 3.073669 -0.114506
vt 2.641295 1.574120
vt 3.060046 1.574120
vt 3.060046 1.992871
vt 2.641295 1.992871
vt 3.060046 2.006494
vt 3.060046 2.425245
vt 2.641295 2.425245
vt 2.641295 2.006494
vt 1.776553 1.560503
vt 1.776553 1.141752
vt 2.195304 1.141752
vt 2.195304 1.560503
vt 3.073669 -2.276370
vt 3.073669 -2.695120
vt 3.492419 -2.695120
vt 3.492419 -2.276370
vt 1.776553 1.574120
vt 2.195304 1.574120
vt 2.195304 1.992871
vt 1.776553 1.992871
vt -2.547175 1.979254
vt -2.128424 1.979254
vt -2.128424 2.398004
vt -2.547175 2.398004
vt -2.114801 2.398004
vt -2.114801 1.979254
vt -1.696050 1.979254
vt -1.696050 2.398004
vt -1.263676 1.979254
vt -1.263676 2.398004
vt -1.682427 2.398004
vt -1.682427 1.979254
vt -1.250059 2.411628
vt -1.250059 1.992871
vt -0.831302 1.992871
vt -0.831302 2.411628
vt -0.398934 2.411628
vt -0.817685 2.411628
vt -0.817685 1.992871
vt -0.398934 1.992871
vt -0.385311 1.992871
vt 0.033440 1.992871
vt 0.033440 2.411628
vt -0.385311 2.411628
vt -2.547175 1.114506
vt -2.128424 1.114506
vt -2.128424 1.533262
vt -2.547175 1.533262
vt 0.047063 2.411628
vt 0.047063 1.992871
vt 0.465814 1.992871
vt 0.465814 2.411628
vt 0.479431 1.992871
vt 0.898188 1.992871
vt 0.898188 2.411628
vt 0.479431 2.411628
s 1
usemtl Wood_Old_Silver
f 1/1/1 2/2/1 4/3/1 3/4/1
f 3/5/2 4/6/2 8/7/2 7/8/2
f 7/8/3 8/7/3 6/9/3 5/10/3
f 5/11/4 6/12/4 2/13/4 1/14/4
f 3/15/5 7/16/5 5/17/5 1/18/5
f 8/19/6 4/20/6 2/21/6 6/22/6
f 9/23/1 10/24/1 12/25/1 11/26/1
f 11/26/2 12/25/2 16/27/2 15/28/2
f 15/28/3 16/27/3 14/29/3 13/30/3
f 13/31/4 14/32/4 10/33/4 9/34/4
f 11/35/5 15/36/5 13/37/5 9/38/5
f 16/39/6 12/40/6 10/41/6 14/42/6
f 17/43/1 18/44/1 20/45/1 19/46/1
f 19/46/2 20/45/2 24/47/2 23/48/2
f 23/48/3 24/47/3 22/49/3 21/50/3
f 21/51/4 22/52/4 18/53/4 17/54/4
f 19/55/5 23/56/5 21/57/5 17/58/5
f 24/59/6 20/60/6 18/61/6 22/62/6
f 25/63/1 26/64/1 28/65/1 27/66/1
f 27/66/2 28/65/2 32/67/2 31/68/2
f 31/68/3 32/67/3 30/69/3 29/70/3
f 29/71/4 30/72/4 26/73/4 25/74/4
f 27/75/5 31/76/5 29/77/5 25/78/5
f 32/79/6 28/80/6 26/81/6 30/82/6
f 33/83/1 34/84/1 36/85/1 35/86/1
f 35/86/2 36/85/2 40/87/2 39/88/2
f 39/88/3 40/87/3 38/89/3 37/90/3
f 37/91/4 38/92/4 34/93/4 33/94/4
f 35/95/5 39/96/5 37/97/5 33/98/5
f 40/99/6 36/100/6 34/101/6 38/102/6
f 41/103/1 42/104/1 44/105/1 43/106/1
f 43/106/2 44/105/2 48/107/2 47/108/2
f 47/108/3 48/107/3 46/109/3 45/110/3
f 45/111/4 46/112/4 42/113/4 41/114/4
f 43/115/5 47/116/5 45/117/5 41/118/5
f 48/119/6 44/120/6 42/121/6 46/122/6
f 49/123/1 50/124/1 52/125/1 51/126/1
f 51/126/2 52/125/2 56/127/2 55/128/2
f 55/128/3 56/127/3 54/129/3 53/130/3
f 53/131/4 54/132/4 50/133/4 49/134/4
f 51/135/5 55/136/5 53/137/5 49/138/5
f 56/139/6 52/140/6 50/141/6 54/142/6
f 57/143/1 58/144/1 60/145/1 59/146/1
f 59/146/2 60/145/2 64/147/2 63/148/2
f 63/149/3 64/150/3 62/151/3 61/152/3
f 61/153/4 62/154/4 58/155/4 57/156/4
f 59/157/5 63/158/5 61/159/5 57/160/5
f 64/161/6 60/162/6 58/163/6 62/164/6
f 65/165/1 66/166/1 68/167/1 67/168/1
f 67/169/2 68/170/2 72/171/2 71/172/2
f 71/172/3 72/171/3 70/173/3 69/174/3
f 69/175/4 70/176/4 66/177/4 65/178/4
f 67/179/5 71/180/5 69/181/5 65/182/5
f 72/183/6 68/184/6 66/185/6 70/186/6
f 73/187/1 74/188/1 76/189/1 75/190/1
f 75/191/2 76/192/2 80/193/2 79/194/2
f 79/194/3 80/193/3 78/195/3 77/196/3
f 77/197/4 78/198/4 74/199/4 73/200/4
f 75/201/5 79/202/5 77/203/5 73/204/5
f 80/205/6 76/206/6 74/207/6 78/208/6
f 81/209/1 82/210/1 84/211/1 83/212/1
f 83/212/2 84/211/2 88/213/2 87/214/2
f 87/214/3 88/213/3 86/215/3 85/216/3
f 85/217/4 86/218/4 82/219/4 81/220/4
f 83/221/5 87/222/5 85/223/5 81/224/5
f 88/225/6 84/226/6 82/227/6 86/228/6
f 89/229/1 90/230/1 92/231/1 91/232/1
f 91/232/2 92/231/2 96/233/2 95/234/2
f 95/234/3 96/233/3 94/235/3 93/236/3
f 93/237/4 94/238/4 90/239/4 89/240/4
f 91/241/5 95/242/5 93/243/5 89/244/5
f 96/245/6 92/246/6 90/247/6 94/248/6
f 97/249/1 98/250/1 100/251/1 99/252/1
f 99/252/2 100/251/2 104/253/2 103/254/2
f 103/254/3 104/253/3 102/255/3 101/256/3
f 101/257/4 102/258/4 98/259/4 97/260/4
f 99/261/5 103/262/5 101/263/5 97/264/5
f 104/265/6 100/266/6 98/267/6 102/268/6
f 105/269/1 106/270/1 108/271/1 107/272/1
f 107/273/2 108/274/2 112/275/2 111/276/2
f 111/276/3 112/275/3 110/277/3 109/278/3
f 109/279/4 110/280/4 106/281/4 105/282/4
f 107/283/5 111/284/5 109/285/5 105/286/5
f 112/287/6 108/288/6 106/289/6 110/290/6
f 113/291/1 114/292/1 116/293/1 115/294/1
f 115/294/2 116/293/2 120/295/2 119/296/2
f 119/296/3 120/295/3 118/297/3 117/298/3
f 117/299/4 118/300/4 114/301/4 113/302/4
f 115/303/5 119/304/5 117/305/5 113/306/5
f 120/307/6 116/308/6 114/309/6 118/310/6
f 121/311/1 122/312/1 124/313/1 123/314/1
f 123/314/2 124/313/2 128/315/2 127/316/2
f 127/317/3 128/318/3 126/319/3 125/320/3
f 125/321/4 126/322/4 122/323/4 121/324/4
f 123/325/5 127/326/5 125/327/5 121/328/5
f 128/329/6 124/330/6 122/331/6 126/332/6
f 129/333/1 130/334/1 132/335/1 131/336/1
f 131/337/2 132/338/2 136/339/2 135/340/2
f 135/340/3 136/339/3 134/341/3 133/342/3
f 133/343/4 134/344/4 130/345/4 129/346/4
f 131/347/5 135/348/5 133/349/5 129/350/5
f 136/351/6 132/352/6 130/353/6 134/354/6
f 137/355/1 138/356/1 140/357/1 139/358/1
f 139/358/2 140/357/2 144/359/2 143/360/2
f 143/360/3 144/359/3 142/361/3 141/362/3
f 141/363/4 142/364/4 138/365/4 137/366/4
f 139/367/5 143/368/5 141/369/5 137/370/5
f 144/371/6 140/372/6 138/373/6 142/374/6
f 145/375/1 146/376/1 148/377/1 147/378/1
f 147/378/2 148/377/2 152/379/2 151/380/2
f 151/380/3 152/379/3 150/381/3 149/382/3
f 149/383/4 150/384/4 146/385/4 145/386/4
f 147/387/5 151/388/5 149/389/5 145/390/5
f 152/391/6 148/392/6 146/393/6 150/394/6
f 153/395/1 154/396/1 156/397/1 155/398/1
f 155/398/2 156/397/2 160/399/2 159/400/2
f 159/400/3 160/399/3 158/401/3 157/402/3
f 157/403/4 158/404/4 154/405/4 153/406/4
f 155/407/5 159/408/5 157/409/5 153/410/5
f 160/411/6 156/412/6 154/413/6 158/414/6
f 161/415/1 162/416/1 164/417/1 163/418/1
f 163/418/2 164/417/2 168/419/2 167/420/2
f 167/420/3 168/419/3 166/421/3 165/422/3
f 165/423/4 166/424/4 162/425/4 161/426/4
f 163/427/5 167/428/5 165/429/5 161/430/5
f 168/431/6 164/432/6 162/433/6 166/434/6
f 169/435/1 170/436/1 172/437/1 171/438/1
f 171/438/2 172/437/2 176/439/2 175/440/2
f 175/440/3 176/439/3 174/441/3 173/442/3
f 173/443/4 174/444/4 170/445/4 169/446/4
f 171/447/5 175/448/5 173/449/5 169/450/5
f 176/451/6 172/452/6 170/453/6 174/454/6
f 177/455/1 178/456/1 180/457/1 179/458/1
f 179/458/2 180/457/2 184/459/2 183/460/2
f 183/460/3 184/459/3 182/461/3 181/462/3
f 181/463/4 182/464/4 178/465/4 177/466/4
f 179/467/5 183/468/5 181/469/5 177/470/5
f 184/471/6 180/472/6 178/473/6 182/474/6
f 185/475/1 186/476/1 188/477/1 187/478/1
f 187/478/2 188/477/2 192/479/2 191/480/2
f 191/481/3 192/482/3 190/483/3 189/484/3
f 189/485/4 190/486/4 186/487/4 185/488/4
f 187/489/5 191/490/5 189/491/5 185/492/5
f 192/493/6 188/494/6 186/495/6 190/496/6
f 193/497/1 194/498/1 196/499/1 195/500/1
f 195/501/2 196/502/2 200/503/2 199/504/2
f 199/504/3 200/503/3 198/505/3 197/506/3
f 197/507/4 198/508/4 194/509/4 193/510/4
f 195/511/5 199/512/5 197/513/5 193/514/5
f 200/515/6 196/516/6 194/517/6 198/518/6
f 201/519/1 202/520/1 204/521/1 203/522/1
f 203/522/2 204/521/2 208/523/2 207/524/2
f 207/524/3 208/523/3 206/525/3 205/526/3
f 205/527/4 206/528/4 202/529/4 201/530/4
f 203/531/5 207/532/5 205/533/5 201/534/5
f 208/535/6 204/536/6 202/537/6 206/538/6
f 209/539/1 210/540/1 212/541/1 211/542/1
f 211/542/2 212/541/2 216/543/2 215/544/2
f 215/544/3 216/543/3 214/545/3 213/546/3
f 213/547/4 214/548/4 210/549/4 209/550/4
f 211/551/5 215/552/5 213/553/5 209/554/5
f 216/555/6 212/556/6 210/557/6 214/558/6
f 217/559/1 218/560/1 220/561/1 219/562/1
f 219/562/2 220/561/2 224/563/2 223/564/2
f 223/564/3 224/563/3 222/565/3 221/566/3
f 221/567/4 222/568/4 218/569/4 217/570/4
f 219/571/5 223/572/5 221/573/5 217/574/5
f 224/575/6 220/576/6 218/577/6 222/578/6
f 225/579/1 226/580/1 228/581/1 227/582/1
f 227/583/2 228/584/2 232/585/2 231/586/2
f 231/587/3 232/588/3 230/589/3 229/590/3
f 229/591/4 230/592/4 226/593/4 225/594/4
f 227/595/5 231/596/5 229/597/5 225/598/5
f 232/599/6 228/600/6 226/601/6 230/602/6
f 233/603/1 234/604/1 236/605/1 235/606/1
f 235/607/2 236/608/2 240/609/2 239/610/2
f 239/611/3 240/612/3 238/613/3 237/614/3
f 237/615/4 238/616/4 234/617/4 233/618/4
f 235/619/5 239/620/5 237/621/5 233/622/5
f 240/623/6 236/624/6 234/625/6 238/626/6
f 241/627/1 242/628/1 244/629/1 243/630/1
f 243/631/2 244/632/2 248/633/2 247/634/2
f 247/635/3 248/636/3 246/637/3 245/638/3
f 245/639/4 246/640/4 242/641/4 241/642/4
f 243/643/5 247/644/5 245/645/5 241/646/5
f 248/647/6 244/648/6 242/649/6 246/650/6
f 249/651/1 250/652/1 252/653/1 251/654/1
f 251/655/2 252/656/2 256/657/2 255/658/2
f 255/659/3 256/660/3 254/661/3 253/662/3
f 253/663/4 254/664/4 250/665/4 249/666/4
f 251/667/5 255/668/5 253/669/5 249/670/5
f 256/671/6 252/672/6 250/673/6 254/674/6
