# Blender 4.5.4 LTS
# www.blender.org
mtllib center-cube.mtl
o Cube
v 0.333333 -0.500000 -0.333333
v -0.333333 -0.500000 -0.333333
v 0.333333 -0.500000 0.333333
v -0.333333 -0.500000 0.333333
v 0.000000 0.500000 0.000000
vn -0.0000 0.3162 -0.9487
vn -0.0000 0.3162 0.9487
vn -0.0000 -1.0000 -0.0000
vn 0.9487 0.3162 -0.0000
vn -0.9487 0.3162 -0.0000
vt 0.599815 0.599815
vt 0.500000 1.206965
vt 0.400185 0.599815
vt 0.400185 0.400185
vt 0.500000 -0.206965
vt 0.599815 0.400185
vt -0.206965 0.500000
vt 1.206965 0.500000
s 0
usemtl Material.001
f 2/1/1 5/2/1 1/3/1
f 3/4/2 5/5/2 4/6/2
f 3/4/3 4/6/3 2/1/3 1/3/3
f 1/3/4 5/7/4 3/4/4
f 5/8/5 2/1/5 4/6/5
