# Blender 4.5.4 LTS
# www.blender.org
mtllib corner-cube.mtl
o Cube
v -1.000000 -1.000000 1.000000
v -1.000000 -1.000000 0.333333
v -0.333333 -1.000000 1.000000
v -0.333333 -1.000000 0.333333
v 0.000000 0.000000 0.000000
vn -0.0000 0.7071 0.7071
vn -0.7071 0.7071 -0.0000
vn -0.0000 -1.0000 -0.0000
vn 0.9487 -0.3162 -0.0000
vn -0.0000 -0.3162 -0.9487
vt 0.915348 0.901178
vt 1.305809 2.557765
vt 0.134425 0.901178
vt -1.522162 -0.270206
vt 0.134425 0.120256
vt 0.915348 0.120255
vt 2.150095 -0.270206
vt 1.305809 -1.114492
s 0
usemtl Material.001
f 3/1/1 5/2/1 1/3/1
f 1/3/2 5/4/2 2/5/2
f 2/5/3 4/6/3 3/1/3 1/3/3
f 4/6/4 5/7/4 3/1/4
f 2/5/5 5/8/5 4/6/5
